<?xml version="1.0" encoding="UTF-8" standalone="no"?>
<!DOCTYPE svg PUBLIC "-//W3C//DTD SVG 1.1//EN" "http://www.w3.org/Graphics/SVG/1.1/DTD/svg11.dtd">
<svg width="41.025" height="18.8" viewBox="0 0 41.025 18.8" xmlns="http://www.w3.org/2000/svg">
	<g id="svgGroup" stroke-linecap="round" fill-rule="evenodd" font-size="9pt" stroke="#379617" stroke-width="0.25mm" fill="#ecf0ed" style="stroke:#379617;stroke-width:0.25mm;fill:#ecf0ed">
		<path d="M 10.65 9.075 L 6.375 7.5 A 5.011 5.011 0 0 1 5.27 6.842 A 3.048 3.048 0 0 1 4.075 4.35 A 3.646 3.646 0 0 1 5.361 1.496 A 5.113 5.113 0 0 1 5.95 1.05 A 6.582 6.582 0 0 1 9.048 0.026 A 8.157 8.157 0 0 1 9.7 0 A 5.322 5.322 0 0 1 11.026 0.158 A 4.111 4.111 0 0 1 12.45 0.825 A 2.929 2.929 0 0 1 13.7 2.932 A 3.798 3.798 0 0 1 13.725 3.375 A 2.219 2.219 0 0 1 13.044 5.011 A 2.779 2.779 0 0 1 12.95 5.1 Q 12.225 5.8 11.175 5.8 A 1.721 1.721 0 0 1 10.641 5.72 A 1.448 1.448 0 0 1 10.125 5.425 A 1.235 1.235 0 0 1 9.706 4.568 A 1.717 1.717 0 0 1 9.7 4.425 A 0.612 0.612 0 0 1 9.721 4.257 Q 9.795 4 10.125 4 Q 10.425 4 10.575 4.575 Q 10.672 4.962 11.165 4.975 A 1.323 1.323 0 0 0 11.2 4.975 A 1.505 1.505 0 0 0 11.917 4.788 A 2.196 2.196 0 0 0 12.313 4.513 A 1.596 1.596 0 0 0 12.68 4.067 A 1.424 1.424 0 0 0 12.85 3.375 A 2.577 2.577 0 0 0 12.709 2.503 A 2.16 2.16 0 0 0 11.85 1.425 Q 10.975 0.85 9.6 0.85 Q 7.9 0.85 6.5 1.725 A 4.164 4.164 0 0 0 5.678 2.395 A 2.674 2.674 0 0 0 4.925 4.275 A 2.395 2.395 0 0 0 5.881 6.2 Q 6.259 6.509 6.788 6.761 A 6.605 6.605 0 0 0 7.225 6.95 L 11.525 8.6 Q 13.825 9.925 13.825 12.625 A 5.274 5.274 0 0 1 12.016 16.681 A 7.357 7.357 0 0 1 11.375 17.2 A 8.425 8.425 0 0 1 7.686 18.674 A 11.18 11.18 0 0 1 5.975 18.8 A 8.491 8.491 0 0 1 4.03 18.588 A 6.323 6.323 0 0 1 1.875 17.65 A 4.49 4.49 0 0 1 0.593 16.304 Q 0 15.319 0 14.025 A 4.056 4.056 0 0 1 1.187 11.139 A 5.395 5.395 0 0 1 1.35 10.975 Q 2.725 9.65 4.425 9.65 A 3.043 3.043 0 0 1 5.498 9.834 A 2.756 2.756 0 0 1 6.313 10.313 A 2.169 2.169 0 0 1 7.093 11.885 A 3.031 3.031 0 0 1 7.1 12.1 Q 7.1 12.419 6.83 12.484 A 0.667 0.667 0 0 1 6.675 12.5 A 0.302 0.302 0 0 1 6.455 12.401 Q 6.357 12.302 6.285 12.104 A 1.794 1.794 0 0 1 6.25 12 A 6.128 6.128 0 0 0 6.141 11.678 Q 5.971 11.221 5.8 11.05 Q 5.457 10.6 4.729 10.536 A 2.886 2.886 0 0 0 4.475 10.525 A 3.522 3.522 0 0 0 2.236 11.329 A 4.666 4.666 0 0 0 1.95 11.575 Q 0.85 12.625 0.85 14 Q 0.85 15.8 2.263 16.882 A 4.581 4.581 0 0 0 2.425 17 A 5.36 5.36 0 0 0 4.381 17.805 A 7.558 7.558 0 0 0 5.9 17.95 A 10.269 10.269 0 0 0 7.657 17.805 A 8.793 8.793 0 0 0 8.513 17.613 Q 9.725 17.275 10.75 16.575 A 5.962 5.962 0 0 0 12.005 15.426 A 4.311 4.311 0 0 0 12.975 12.65 A 3.928 3.928 0 0 0 12.608 10.924 Q 12.051 9.768 10.65 9.075 Z M 28.203 17.639 A 1.81 1.81 0 0 0 28.975 17.8 Q 30.2 17.8 31.063 16.863 A 10.056 10.056 0 0 0 31.533 16.313 A 11.503 11.503 0 0 0 32.6 14.7 Q 32.65 14.65 32.713 14.425 Q 32.756 14.267 32.77 14.158 A 0.703 0.703 0 0 0 32.775 14.075 Q 32.775 13.933 32.743 13.867 A 0.115 0.115 0 0 0 32.713 13.825 Q 32.669 13.79 32.594 13.78 A 0.499 0.499 0 0 0 32.525 13.775 A 0.248 0.248 0 0 0 32.412 13.806 Q 32.32 13.853 32.213 13.974 A 1.781 1.781 0 0 0 32.113 14.1 A 17.848 17.848 0 0 0 32.068 14.162 Q 31.863 14.444 31.75 14.625 Q 31.2 15.475 30.513 16.213 A 2.764 2.764 0 0 1 30.069 16.602 A 1.842 1.842 0 0 1 29 16.95 A 0.979 0.979 0 0 1 28.503 16.83 Q 28.093 16.594 27.987 15.894 A 3.651 3.651 0 0 1 27.95 15.35 A 4.633 4.633 0 0 1 27.961 15.033 Q 28.024 14.111 28.45 13.025 A 20.968 20.968 0 0 1 28.645 12.548 A 23.651 23.651 0 0 1 29.325 11.088 A 36.42 36.42 0 0 1 29.718 10.335 A 43.4 43.4 0 0 1 30.45 9.025 A 0.544 0.544 0 0 0 30.459 9.006 A 0.477 0.477 0 0 0 30.488 8.925 Q 30.5 8.875 30.5 8.825 A 0.686 0.686 0 0 0 30.49 8.703 Q 30.446 8.459 30.21 8.397 A 0.724 0.724 0 0 0 30.025 8.375 A 0.069 0.069 0 0 0 30.003 8.381 Q 29.941 8.404 29.765 8.528 A 6.627 6.627 0 0 0 29.7 8.575 Q 28.805 9.166 28.126 9.358 A 2.222 2.222 0 0 1 27.525 9.45 Q 26.925 9.45 26.388 9.125 A 1.709 1.709 0 0 1 26.153 8.956 A 1.173 1.173 0 0 1 25.75 8.275 Q 25.8 7.875 25.838 7.525 A 8.066 8.066 0 0 0 25.847 7.428 Q 25.861 7.285 25.868 7.155 A 4.802 4.802 0 0 0 25.875 6.9 A 4.108 4.108 0 0 0 25.865 6.607 Q 25.836 6.193 25.716 5.963 A 0.475 0.475 0 0 0 25.275 5.675 A 0.415 0.415 0 0 0 24.903 5.903 Q 24.725 6.203 24.725 6.9 A 6.518 6.518 0 0 0 24.758 7.57 A 4.869 4.869 0 0 0 24.875 8.25 A 13.728 13.728 0 0 1 24.709 8.963 A 16.186 16.186 0 0 1 24.213 10.525 A 31.734 31.734 0 0 1 24.102 10.817 A 28.749 28.749 0 0 1 23.275 12.763 Q 23.024 13.296 22.773 13.763 A 15.204 15.204 0 0 1 22.275 14.625 A 0.552 0.552 0 0 0 22.291 14.764 Q 22.335 14.934 22.502 14.982 A 0.54 0.54 0 0 0 22.65 15 A 0.309 0.309 0 0 0 22.687 14.998 Q 22.758 14.989 22.875 14.95 Q 23.025 14.9 23.125 14.7 Q 23.35 14.306 23.591 13.837 A 32.168 32.168 0 0 0 23.975 13.063 Q 24.425 12.125 24.813 11.138 A 13.612 13.612 0 0 0 24.862 11.011 Q 25.21 10.097 25.35 9.325 Q 26.275 10.325 27.5 10.325 A 2.782 2.782 0 0 0 27.693 10.318 Q 28.218 10.282 28.85 10.05 A 25.803 25.803 0 0 0 28.53 10.659 Q 27.602 12.485 27.266 13.921 A 6.63 6.63 0 0 0 27.075 15.425 Q 27.075 16.575 27.613 17.188 A 1.784 1.784 0 0 0 28.203 17.639 Z M 16.886 17.736 A 4.801 4.801 0 0 0 18.075 17.875 Q 19.575 17.875 20.925 17.013 Q 22.275 16.15 23.125 14.7 Q 23.144 14.663 23.17 14.597 A 3.235 3.235 0 0 0 23.188 14.55 A 0.377 0.377 0 0 0 23.189 14.546 Q 23.214 14.478 23.221 14.377 A 1.328 1.328 0 0 0 23.225 14.275 Q 23.225 13.975 22.975 13.975 A 0.416 0.416 0 0 0 22.742 14.045 A 0.561 0.561 0 0 0 22.625 14.15 Q 22.527 14.265 22.407 14.434 A 7.712 7.712 0 0 0 22.275 14.625 A 6.737 6.737 0 0 1 21.674 15.435 A 4.609 4.609 0 0 1 18.05 17.1 A 3.801 3.801 0 0 1 17.346 17.038 A 2.51 2.51 0 0 1 15.8 16.138 A 3.397 3.397 0 0 1 15.139 14.735 A 4.908 4.908 0 0 1 15.025 13.65 Q 15.025 13.375 15.063 13.088 Q 15.1 12.8 15.15 12.525 A 3.109 3.109 0 0 0 15.554 12.648 Q 16.094 12.775 16.825 12.775 A 8.291 8.291 0 0 0 17.804 12.719 A 6.612 6.612 0 0 0 20.2 11.975 A 5.568 5.568 0 0 0 20.341 11.894 Q 20.806 11.616 21.133 11.292 A 2.412 2.412 0 0 0 21.9 9.525 A 2.467 2.467 0 0 0 21.873 9.151 A 1.667 1.667 0 0 0 21.263 8.063 A 2.081 2.081 0 0 0 21.174 7.995 Q 20.804 7.729 20.314 7.622 A 3.345 3.345 0 0 0 19.6 7.55 A 4.68 4.68 0 0 0 17.385 8.104 A 6.111 6.111 0 0 0 16.025 9.1 A 5.679 5.679 0 0 0 14.484 11.475 A 6.801 6.801 0 0 0 14.15 13.65 A 5.785 5.785 0 0 0 14.255 14.779 A 4.07 4.07 0 0 0 15.175 16.7 A 3.292 3.292 0 0 0 16.886 17.736 Z M 34.686 17.736 A 4.801 4.801 0 0 0 35.875 17.875 Q 37.375 17.875 38.725 17.013 Q 40.075 16.15 40.925 14.7 Q 40.944 14.663 40.97 14.597 A 3.235 3.235 0 0 0 40.988 14.55 A 0.377 0.377 0 0 0 40.989 14.546 Q 41.014 14.478 41.021 14.377 A 1.328 1.328 0 0 0 41.025 14.275 Q 41.025 13.975 40.775 13.975 A 0.416 0.416 0 0 0 40.542 14.045 A 0.561 0.561 0 0 0 40.425 14.15 Q 40.327 14.265 40.207 14.434 A 7.712 7.712 0 0 0 40.075 14.625 A 6.737 6.737 0 0 1 39.474 15.435 A 4.609 4.609 0 0 1 35.85 17.1 A 3.801 3.801 0 0 1 35.146 17.038 A 2.51 2.51 0 0 1 33.6 16.138 A 3.397 3.397 0 0 1 32.939 14.735 A 4.908 4.908 0 0 1 32.825 13.65 Q 32.825 13.375 32.863 13.088 Q 32.9 12.8 32.95 12.525 A 3.109 3.109 0 0 0 33.354 12.648 Q 33.894 12.775 34.625 12.775 A 8.291 8.291 0 0 0 35.604 12.719 A 6.612 6.612 0 0 0 38 11.975 A 5.568 5.568 0 0 0 38.141 11.894 Q 38.606 11.616 38.933 11.292 A 2.412 2.412 0 0 0 39.7 9.525 A 2.467 2.467 0 0 0 39.673 9.151 A 1.667 1.667 0 0 0 39.063 8.063 A 2.081 2.081 0 0 0 38.974 7.995 Q 38.604 7.729 38.114 7.622 A 3.345 3.345 0 0 0 37.4 7.55 A 4.68 4.68 0 0 0 35.185 8.104 A 6.111 6.111 0 0 0 33.825 9.1 A 5.679 5.679 0 0 0 32.284 11.475 A 6.801 6.801 0 0 0 31.95 13.65 A 5.785 5.785 0 0 0 32.055 14.779 A 4.07 4.07 0 0 0 32.975 16.7 A 3.292 3.292 0 0 0 34.686 17.736 Z M 16.75 11.925 Q 18.35 11.925 19.6 11.3 A 3.939 3.939 0 0 0 20.234 10.924 Q 20.559 10.683 20.755 10.404 A 1.582 1.582 0 0 0 21.05 9.475 A 1.055 1.055 0 0 0 20.929 8.955 Q 20.688 8.521 19.966 8.427 A 3.402 3.402 0 0 0 19.525 8.4 A 3.637 3.637 0 0 0 17.461 9.051 A 4.879 4.879 0 0 0 16.975 9.425 A 5.696 5.696 0 0 0 15.464 11.488 A 6.712 6.712 0 0 0 15.375 11.7 A 3.088 3.088 0 0 0 15.985 11.865 Q 16.271 11.914 16.597 11.923 A 5.462 5.462 0 0 0 16.75 11.925 Z M 34.55 11.925 Q 36.15 11.925 37.4 11.3 A 3.939 3.939 0 0 0 38.034 10.924 Q 38.359 10.683 38.555 10.404 A 1.582 1.582 0 0 0 38.85 9.475 A 1.055 1.055 0 0 0 38.729 8.955 Q 38.488 8.521 37.766 8.427 A 3.402 3.402 0 0 0 37.325 8.4 A 3.637 3.637 0 0 0 35.261 9.051 A 4.879 4.879 0 0 0 34.775 9.425 A 5.696 5.696 0 0 0 33.264 11.488 A 6.712 6.712 0 0 0 33.175 11.7 A 3.088 3.088 0 0 0 33.785 11.865 Q 34.071 11.914 34.397 11.923 A 5.462 5.462 0 0 0 34.55 11.925 Z" vector-effect="non-scaling-stroke"/>
	</g>
</svg>