<?xml version="1.0" encoding="UTF-8" standalone="no"?>
<!DOCTYPE svg PUBLIC "-//W3C//DTD SVG 1.1//EN" "http://www.w3.org/Graphics/SVG/1.1/DTD/svg11.dtd">
<svg width="205.125" height="94.002" viewBox="0 0 205.125 94.002" xmlns="http://www.w3.org/2000/svg">
	<g id="svgGroup" stroke-linecap="round" fill-rule="evenodd" font-size="9pt" stroke="#aaebbc" stroke-width="0.25mm" fill="#138222" style="stroke:#aaebbc;stroke-width:0.25mm;fill:#138222">
		<path d="M 53.25 45.376 L 31.875 37.501 A 25.057 25.057 0 0 1 26.348 34.209 A 15.242 15.242 0 0 1 20.375 21.751 A 18.232 18.232 0 0 1 26.805 7.482 A 25.566 25.566 0 0 1 29.75 5.251 A 32.911 32.911 0 0 1 45.241 0.129 A 40.785 40.785 0 0 1 48.5 0.001 A 26.608 26.608 0 0 1 55.131 0.79 A 20.553 20.553 0 0 1 62.25 4.126 A 14.643 14.643 0 0 1 68.499 14.66 A 18.99 18.99 0 0 1 68.625 16.876 A 11.094 11.094 0 0 1 65.219 25.057 A 13.896 13.896 0 0 1 64.75 25.501 Q 61.125 29.001 55.875 29.001 A 8.603 8.603 0 0 1 53.207 28.602 A 7.242 7.242 0 0 1 50.625 27.126 A 6.176 6.176 0 0 1 48.529 22.841 A 8.584 8.584 0 0 1 48.5 22.126 A 3.059 3.059 0 0 1 48.606 21.285 Q 48.876 20.342 49.838 20.091 A 3.131 3.131 0 0 1 50.625 20.001 Q 52.125 20.001 52.875 22.876 Q 53.358 24.808 55.826 24.873 A 6.615 6.615 0 0 0 56 24.876 A 7.525 7.525 0 0 0 59.585 23.938 A 10.979 10.979 0 0 0 61.563 22.563 A 7.978 7.978 0 0 0 63.4 20.336 A 7.12 7.12 0 0 0 64.25 16.876 A 12.886 12.886 0 0 0 63.547 12.516 A 10.802 10.802 0 0 0 59.25 7.126 Q 54.875 4.251 48 4.251 Q 39.5 4.251 32.5 8.626 A 20.819 20.819 0 0 0 28.39 11.974 A 13.372 13.372 0 0 0 24.625 21.376 A 11.975 11.975 0 0 0 29.403 30.999 Q 31.296 32.546 33.941 33.807 A 33.027 33.027 0 0 0 36.125 34.751 L 57.625 43.001 A 23.675 23.675 0 0 1 64.855 49.226 Q 68.425 53.968 69.01 60.495 A 29.431 29.431 0 0 1 69.125 63.126 A 26.369 26.369 0 0 1 60.078 83.403 A 36.783 36.783 0 0 1 56.875 86.001 A 42.125 42.125 0 0 1 38.429 93.368 A 55.898 55.898 0 0 1 29.875 94.001 A 42.456 42.456 0 0 1 20.148 92.939 A 31.614 31.614 0 0 1 9.375 88.251 A 22.448 22.448 0 0 1 2.967 81.521 Q 0.278 77.056 0.026 71.325 A 27.3 27.3 0 0 1 0 70.126 A 20.282 20.282 0 0 1 5.933 55.697 A 26.975 26.975 0 0 1 6.75 54.876 A 25.257 25.257 0 0 1 12.84 50.465 A 20.267 20.267 0 0 1 22.125 48.251 A 15.217 15.217 0 0 1 27.491 49.172 A 13.78 13.78 0 0 1 31.563 51.563 A 10.843 10.843 0 0 1 35.463 59.424 A 15.154 15.154 0 0 1 35.5 60.501 A 2.705 2.705 0 0 1 35.391 61.304 Q 35.019 62.501 33.375 62.501 A 1.51 1.51 0 0 1 32.275 62.005 Q 31.787 61.51 31.423 60.521 A 8.969 8.969 0 0 1 31.25 60.001 A 30.642 30.642 0 0 0 30.705 58.391 Q 29.855 56.11 29.005 55.255 A 2.826 2.826 0 0 0 29 55.251 A 6.162 6.162 0 0 0 26.028 53.165 Q 24.963 52.796 23.647 52.68 A 14.428 14.428 0 0 0 22.375 52.626 A 17.612 17.612 0 0 0 11.178 56.645 A 23.328 23.328 0 0 0 9.75 57.876 Q 4.25 63.126 4.25 70.001 A 18.303 18.303 0 0 0 5.839 77.729 Q 7.601 81.565 11.317 84.41 A 22.908 22.908 0 0 0 12.125 85.001 A 26.799 26.799 0 0 0 21.905 89.025 A 37.792 37.792 0 0 0 29.5 89.751 A 51.347 51.347 0 0 0 38.284 89.024 A 43.965 43.965 0 0 0 42.563 88.063 Q 48.625 86.376 53.75 82.876 A 29.808 29.808 0 0 0 60.027 77.132 A 21.554 21.554 0 0 0 64.875 63.251 A 19.64 19.64 0 0 0 63.039 54.619 Q 60.953 50.291 56.5 47.261 A 27.221 27.221 0 0 0 53.25 45.376 Z M 115.625 73.501 Q 116.75 71.532 117.954 69.187 A 160.84 160.84 0 0 0 119.875 65.313 Q 122.125 60.626 124.063 55.688 A 68.082 68.082 0 0 0 124.308 55.055 Q 125.147 52.851 125.745 50.812 A 40.935 40.935 0 0 0 126.75 46.626 A 19.059 19.059 0 0 0 128.081 47.933 A 13.798 13.798 0 0 0 137.5 51.626 A 13.909 13.909 0 0 0 138.465 51.592 Q 141.092 51.409 144.25 50.251 Q 138.287 61.253 136.331 69.603 A 33.149 33.149 0 0 0 135.375 77.126 Q 135.375 80.091 136.09 82.341 A 9.93 9.93 0 0 0 138.063 85.938 A 8.922 8.922 0 0 0 141.017 88.193 A 9.048 9.048 0 0 0 144.875 89.001 A 13.641 13.641 0 0 0 150.75 87.735 A 14.693 14.693 0 0 0 155.313 84.313 A 50.28 50.28 0 0 0 157.664 81.563 A 57.515 57.515 0 0 0 163 73.501 Q 163.25 73.251 163.563 72.126 A 14.803 14.803 0 0 0 163.639 71.841 Q 163.795 71.234 163.848 70.791 A 3.516 3.516 0 0 0 163.875 70.376 Q 163.875 69.376 163.563 69.126 A 0.975 0.975 0 0 0 163.283 68.973 Q 163.143 68.922 162.969 68.898 A 2.494 2.494 0 0 0 162.625 68.876 A 1.242 1.242 0 0 0 162.06 69.028 Q 161.599 69.265 161.067 69.868 A 8.903 8.903 0 0 0 160.563 70.501 A 89.211 89.211 0 0 0 160.338 70.809 Q 159.315 72.222 158.75 73.126 Q 156 77.376 152.563 81.063 A 13.821 13.821 0 0 1 150.346 83.008 A 9.212 9.212 0 0 1 145 84.751 A 4.897 4.897 0 0 1 142.516 84.149 Q 140.465 82.969 139.935 79.469 A 18.253 18.253 0 0 1 139.75 76.751 Q 139.75 71.501 142.25 65.126 A 104.842 104.842 0 0 1 143.227 62.739 A 118.255 118.255 0 0 1 146.625 55.438 Q 149.125 50.501 152.25 45.126 A 2.719 2.719 0 0 0 152.295 45.032 A 2.386 2.386 0 0 0 152.438 44.626 Q 152.5 44.376 152.5 44.126 Q 152.5 41.876 150.125 41.876 Q 149.875 41.876 148.5 42.876 A 48.57 48.57 0 0 1 146.918 43.879 Q 143.41 46.005 140.631 46.791 A 11.111 11.111 0 0 1 137.625 47.251 Q 134.625 47.251 131.938 45.626 Q 129.25 44.001 128.75 41.376 Q 129 39.376 129.188 37.626 A 40.332 40.332 0 0 0 129.237 37.141 Q 129.305 36.425 129.339 35.776 A 24.009 24.009 0 0 0 129.375 34.501 A 20.539 20.539 0 0 0 129.326 33.037 Q 129.178 30.964 128.578 29.813 A 2.373 2.373 0 0 0 126.375 28.376 A 2.074 2.074 0 0 0 124.515 29.515 Q 123.906 30.542 123.714 32.497 A 20.596 20.596 0 0 0 123.625 34.501 A 32.592 32.592 0 0 0 123.79 37.852 A 24.343 24.343 0 0 0 124.375 41.251 A 68.642 68.642 0 0 1 123.546 44.813 A 80.932 80.932 0 0 1 121.063 52.626 A 158.699 158.699 0 0 1 120.511 54.086 A 143.746 143.746 0 0 1 116.375 63.813 A 122.684 122.684 0 0 1 116.297 63.98 Q 113.836 69.188 111.375 73.126 Q 111.375 75.001 113.25 75.001 A 1.522 1.522 0 0 0 113.423 74.99 Q 113.778 74.949 114.364 74.754 A 10.332 10.332 0 0 0 114.375 74.751 A 1.657 1.657 0 0 0 114.845 74.503 Q 115.291 74.169 115.625 73.501 Z M 84.432 88.681 A 24.003 24.003 0 0 0 90.375 89.376 A 25.187 25.187 0 0 0 95.669 88.819 A 27.137 27.137 0 0 0 104.625 85.063 Q 111.375 80.751 115.625 73.501 Q 115.75 73.251 115.938 72.751 A 1.891 1.891 0 0 0 115.946 72.728 Q 116.068 72.39 116.107 71.886 A 6.64 6.64 0 0 0 116.125 71.376 A 3.229 3.229 0 0 0 116.119 71.167 Q 116.035 69.876 114.875 69.876 A 2.078 2.078 0 0 0 113.71 70.226 A 2.806 2.806 0 0 0 113.125 70.751 A 15.883 15.883 0 0 0 112.606 71.392 Q 112.333 71.747 112.033 72.168 A 38.556 38.556 0 0 0 111.375 73.126 A 33.684 33.684 0 0 1 108.372 77.173 A 23.043 23.043 0 0 1 90.25 85.501 A 19.005 19.005 0 0 1 86.731 85.19 A 12.551 12.551 0 0 1 79 80.688 A 16.985 16.985 0 0 1 75.693 73.676 A 24.538 24.538 0 0 1 75.125 68.251 Q 75.125 66.876 75.313 65.438 A 56.766 56.766 0 0 1 75.75 62.626 Q 77.883 63.446 80.823 63.728 A 34.672 34.672 0 0 0 84.125 63.876 Q 93.625 63.876 101 59.876 Q 103.789 58.317 105.663 56.462 A 12.058 12.058 0 0 0 109.5 47.626 A 12.337 12.337 0 0 0 109.364 45.753 A 8.333 8.333 0 0 0 106.313 40.313 A 10.406 10.406 0 0 0 105.868 39.975 Q 104.02 38.646 101.572 38.111 A 16.725 16.725 0 0 0 98 37.751 A 23.402 23.402 0 0 0 86.926 40.519 A 30.553 30.553 0 0 0 80.125 45.501 Q 70.75 54.251 70.75 68.251 A 28.927 28.927 0 0 0 71.276 73.897 A 20.35 20.35 0 0 0 75.875 83.501 A 16.461 16.461 0 0 0 84.432 88.681 Z M 173.432 88.681 A 24.003 24.003 0 0 0 179.375 89.376 A 25.187 25.187 0 0 0 184.669 88.819 A 27.137 27.137 0 0 0 193.625 85.063 Q 200.375 80.751 204.625 73.501 Q 204.75 73.251 204.938 72.751 A 1.891 1.891 0 0 0 204.946 72.728 Q 205.068 72.39 205.107 71.886 A 6.64 6.64 0 0 0 205.125 71.376 A 3.229 3.229 0 0 0 205.119 71.167 Q 205.035 69.876 203.875 69.876 A 2.078 2.078 0 0 0 202.71 70.226 A 2.806 2.806 0 0 0 202.125 70.751 A 15.883 15.883 0 0 0 201.606 71.392 Q 201.333 71.747 201.033 72.168 A 38.556 38.556 0 0 0 200.375 73.126 A 33.684 33.684 0 0 1 197.372 77.173 A 23.043 23.043 0 0 1 179.25 85.501 A 19.005 19.005 0 0 1 175.731 85.19 A 12.551 12.551 0 0 1 168 80.688 A 16.985 16.985 0 0 1 164.693 73.676 A 24.538 24.538 0 0 1 164.125 68.251 Q 164.125 66.876 164.313 65.438 A 56.766 56.766 0 0 1 164.75 62.626 Q 166.883 63.446 169.823 63.728 A 34.672 34.672 0 0 0 173.125 63.876 Q 182.625 63.876 190 59.876 Q 192.789 58.317 194.663 56.462 A 12.058 12.058 0 0 0 198.5 47.626 A 12.337 12.337 0 0 0 198.364 45.753 A 8.333 8.333 0 0 0 195.313 40.313 A 10.406 10.406 0 0 0 194.868 39.975 Q 193.02 38.646 190.572 38.111 A 16.725 16.725 0 0 0 187 37.751 A 23.402 23.402 0 0 0 175.926 40.519 A 30.553 30.553 0 0 0 169.125 45.501 Q 159.75 54.251 159.75 68.251 A 28.927 28.927 0 0 0 160.276 73.897 A 20.35 20.35 0 0 0 164.875 83.501 A 16.461 16.461 0 0 0 173.432 88.681 Z M 83.75 59.626 A 34.965 34.965 0 0 0 91.729 58.75 A 28.456 28.456 0 0 0 98 56.501 A 19.696 19.696 0 0 0 101.172 54.618 Q 102.797 53.413 103.774 52.019 A 7.911 7.911 0 0 0 105.25 47.376 Q 105.25 42.001 97.625 42.001 A 18.183 18.183 0 0 0 87.303 45.255 A 24.394 24.394 0 0 0 84.875 47.126 A 28.479 28.479 0 0 0 77.32 57.441 A 33.562 33.562 0 0 0 76.875 58.501 Q 79.472 59.517 82.987 59.615 A 27.308 27.308 0 0 0 83.75 59.626 Z M 172.75 59.626 A 34.965 34.965 0 0 0 180.729 58.75 A 28.456 28.456 0 0 0 187 56.501 A 19.696 19.696 0 0 0 190.172 54.618 Q 191.797 53.413 192.774 52.019 A 7.911 7.911 0 0 0 194.25 47.376 Q 194.25 42.001 186.625 42.001 A 18.183 18.183 0 0 0 176.303 45.255 A 24.394 24.394 0 0 0 173.875 47.126 A 28.479 28.479 0 0 0 166.32 57.441 A 33.562 33.562 0 0 0 165.875 58.501 Q 168.472 59.517 171.987 59.615 A 27.308 27.308 0 0 0 172.75 59.626 Z" vector-effect="non-scaling-stroke"/>
	</g>
</svg>